<svg width="170" height="44" viewBox="0 0 170 44" fill="none" xmlns="http://www.w3.org/2000/svg">
<g clip-path="url(#clip0_253_2112)">
<path d="M24.2207 2.18694H37.0706C45.1868 2.2829 51.6318 8.34005 51.4999 15.8085C51.3679 23.277 44.739 29.3102 36.6348 29.4261H33.6003L35.8752 17.6717H36.6348C37.8543 17.6717 38.8498 16.832 38.8658 15.8165C38.8818 14.801 37.9023 13.9574 36.6708 13.9574H34.7397L29.4662 41.1006H16.6203C8.50009 41.0047 2.05513 34.9435 2.18706 27.479C2.319 19.9546 9.07982 13.8535 17.288 13.8535H20.0866L19.6229 16.2523L17.8037 25.6399H17.0441C15.8446 25.6399 14.8331 26.4795 14.8131 27.495C14.7931 28.5106 15.7807 29.3542 17.0121 29.3542H18.9432L24.2127 2.19893M22.4175 0.0119629L22.0697 1.81912L20.1626 11.6745H17.3279C7.92836 11.6745 0.156021 18.7671 0.00409222 27.483C-0.0315073 29.5819 0.377597 31.6646 1.20451 33.594C2.03142 35.5235 3.2574 37.2561 4.80183 38.6778C8.00068 41.6432 12.1984 43.296 16.5603 43.3076H31.2654L31.6172 41.5004L33.5323 31.6411H36.6029L38.454 31.5251C42.2045 31.1184 45.7293 29.5324 48.5213 26.9953C50.1021 25.5893 51.3769 23.8731 52.2662 21.9534C53.1556 20.0337 53.6405 17.9516 53.6908 15.8365C53.7249 13.7379 53.3151 11.6557 52.4883 9.72643C51.6615 7.7972 50.4363 6.06447 48.8931 4.64179C45.6949 1.67538 41.4967 0.0223806 37.1346 0.0119629H37.1106H24.2607H22.4175Z" fill="#21366E"/>
<path d="M69.4431 26.6674C69.2886 26.9561 69.0903 27.2191 68.8554 27.447C68.6103 27.7042 68.3148 27.908 67.9873 28.0456C67.6598 28.1832 67.3074 28.2516 66.9522 28.2467C66.6496 28.2613 66.3474 28.2115 66.0655 28.1005C65.7836 27.9895 65.5285 27.8199 65.317 27.603C64.8876 27.1131 64.6679 26.4741 64.7053 25.8238C64.6588 24.9457 64.9442 24.0822 65.5049 23.4049C65.7466 23.1171 66.0491 22.8864 66.3906 22.7295C66.7321 22.5725 67.1042 22.4933 67.48 22.4974C67.8374 22.4749 68.1951 22.5354 68.5252 22.6742C68.8554 22.8129 69.149 23.026 69.3831 23.297C69.5612 23.5136 69.6968 23.7618 69.7829 24.0286L73.9969 23.1491C73.6537 21.996 72.9878 20.9653 72.0778 20.1784C70.9424 19.2029 69.4391 18.7151 67.568 18.7151C66.5782 18.6895 65.5934 18.862 64.6713 19.2225C63.7492 19.583 62.9085 20.1241 62.1985 20.8141C61.4997 21.462 60.945 22.2496 60.5703 23.1257C60.1956 24.0018 60.0093 24.947 60.0235 25.8997C59.9968 26.7237 60.1492 27.5436 60.4701 28.3029C60.7911 29.0622 61.273 29.7428 61.8826 30.2977C63.1221 31.4385 64.7786 32.0076 66.8523 32.0049C67.9411 32.0288 69.0205 31.7996 70.0057 31.3355C70.9908 30.8714 71.8548 30.1849 72.5296 29.3301C72.9699 28.7817 73.3368 28.1782 73.6211 27.535L69.4431 26.6674Z" fill="#21366E"/>
<path d="M80.0662 25.0042H80.2461L84.88 19.075H89.7297L87.5427 31.665H83.0288L83.7645 27.535L84.3402 25.7358H84.1603L79.5465 31.665H74.6768L76.8837 19.0909H81.3776L80.6579 23.221L80.0662 25.0042Z" fill="#21366E"/>
<path d="M109.421 23.0251H105.646L106.346 19.075H118.384L117.685 23.0251H113.931L112.383 31.665H107.893L109.421 23.0251Z" fill="#21366E"/>
<path d="M123.526 28.0668H129.364L128.724 31.6652H118.385L120.596 19.0911H130.927L130.295 22.6894H124.458L124.258 23.8608H128.84L128.3 26.9114H123.722L123.526 28.0668Z" fill="#21366E"/>
<path d="M143.916 19.075H149.913L147.71 31.665H143.216L144.224 25.9357L144.779 24.3005H144.599L142.373 28.7904H138.238L137.595 24.3005H137.395V25.9357L136.391 31.665H131.897L134.108 19.0909H140.054L140.737 24.9282H141.185L143.916 19.075Z" fill="#21366E"/>
<path d="M157.11 22.4695H158.801C159.433 22.4355 160.065 22.5269 160.661 22.7382C161.258 22.9495 161.806 23.2767 162.275 23.7009C162.688 24.0779 163.015 24.5379 163.237 25.0505C163.459 25.5632 163.57 26.1169 163.563 26.6755C163.58 27.3445 163.452 28.0092 163.187 28.6237C162.922 29.2381 162.526 29.7875 162.028 30.2338C160.912 31.1994 159.468 31.7002 157.994 31.6332H151.009L153.216 19.0591H157.71L157.11 22.4695ZM156.11 28.1468H157.818C157.972 28.1497 158.125 28.1199 158.267 28.0593C158.409 27.9986 158.537 27.9085 158.641 27.795C158.753 27.6835 158.841 27.5506 158.9 27.4043C158.959 27.2579 158.988 27.1012 158.985 26.9434C158.993 26.8164 158.976 26.6891 158.934 26.5689C158.892 26.4488 158.826 26.3382 158.741 26.2437C158.656 26.1581 158.553 26.0915 158.44 26.0481C158.327 26.0047 158.206 25.9855 158.085 25.9918H156.506L156.11 28.1468ZM170 19.0751L167.789 31.6651H163.295L165.506 19.0751H170Z" fill="#21366E"/>
<path d="M100.057 26.6674C99.9029 26.9561 99.7046 27.2191 99.4696 27.447C99.2246 27.7042 98.929 27.908 98.6016 28.0456C98.2741 28.1832 97.9217 28.2516 97.5665 28.2467C97.2639 28.2613 96.9616 28.2115 96.6797 28.1005C96.3978 27.9895 96.1427 27.8199 95.9313 27.603C95.5019 27.1131 95.2822 26.4741 95.3196 25.8238C95.273 24.9457 95.5585 24.0822 96.1192 23.4049C96.3609 23.1171 96.6633 22.8864 97.0049 22.7295C97.3464 22.5725 97.7184 22.4933 98.0943 22.4974C98.4517 22.4749 98.8094 22.5354 99.1395 22.6742C99.4696 22.8129 99.7632 23.026 99.9974 23.297C100.175 23.5136 100.311 23.7618 100.397 24.0286L104.611 23.1491C104.268 21.996 103.602 20.9653 102.692 20.1784C101.557 19.2029 100.053 18.7151 98.1822 18.7151C97.1925 18.6895 96.2076 18.862 95.2856 19.2225C94.3635 19.583 93.5227 20.1241 92.8127 20.8141C92.114 21.462 91.5592 22.2496 91.1845 23.1257C90.8098 24.0018 90.6235 24.947 90.6378 25.8997C90.611 26.7237 90.7634 27.5436 91.0844 28.3029C91.4054 29.0622 91.8873 29.7428 92.4969 30.2977C93.7363 31.4385 95.3929 32.0076 97.4666 32.0049C98.5553 32.0288 99.6348 31.7996 100.62 31.3355C101.605 30.8714 102.469 30.1849 103.144 29.3301C103.584 28.7817 103.951 28.1782 104.235 27.535L100.057 26.6674Z" fill="#21366E"/>
<path d="M62.2471 0.152036H68.784C70.0685 0.102773 71.3209 0.560908 72.2704 1.42744C72.7091 1.82007 73.0583 2.30248 73.2942 2.84193C73.5302 3.38138 73.6473 3.96526 73.6377 4.55397C73.6508 5.25946 73.5151 5.95979 73.2396 6.60937C72.964 7.25896 72.5548 7.84324 72.0385 8.32419C71.508 8.83315 70.8809 9.23056 70.1942 9.49289C69.5074 9.75523 68.7751 9.87716 68.0404 9.85148H65.0018L64.498 12.7261H60.0361L62.2471 0.152036ZM65.6575 6.25717H67.6166C67.8064 6.26153 67.9952 6.2274 68.1715 6.15686C68.3479 6.08633 68.5081 5.98082 68.6426 5.84672C68.7771 5.71262 68.883 5.55268 68.954 5.37654C69.0251 5.20041 69.0597 5.01171 69.0559 4.82184C69.0644 4.67362 69.0405 4.52534 68.986 4.38726C68.9315 4.24919 68.8475 4.12461 68.74 4.02221C68.5054 3.8166 68.2 3.71048 67.8884 3.72636H66.1093L65.6575 6.25717Z" fill="#21366E"/>
<path d="M89.0218 0.151855L82.141 12.7259H77.4672L79.4663 9.04368H77.2194L75.2803 0.151855H79.8621L80.9416 5.26945H81.6573L84.352 0.151855H89.0218Z" fill="#21366E"/>
<path d="M108.641 9.13179H114.482L113.854 12.7301H103.535L105.746 0.156006H116.073L115.446 3.75431H109.608L109.408 4.92176H113.99L113.45 7.97633H108.857L108.641 9.13179Z" fill="#21366E"/>
<path d="M118.868 0.151855H125.821C127.104 0.151855 128.1 0.423727 128.807 0.975467C129.135 1.20813 129.402 1.51567 129.586 1.87246C129.77 2.22924 129.867 2.62493 129.867 3.0265C129.883 3.5095 129.773 3.98835 129.549 4.41644C129.325 4.84453 128.994 5.20728 128.588 5.46936C128.205 5.72276 127.78 5.90431 127.332 6.00511V6.18502C127.692 6.30665 128.03 6.48334 128.336 6.70877C128.653 6.95124 128.909 7.26432 129.084 7.62314C129.259 7.98197 129.348 8.37664 129.343 8.7758C129.356 9.31336 129.249 9.84701 129.029 10.338C128.81 10.829 128.484 11.265 128.076 11.6145C127.232 12.3541 126.077 12.7259 124.581 12.7259H116.661L118.868 0.151855ZM121.707 9.58342H123.706C124.461 9.58342 124.837 9.22359 124.837 8.50393C124.837 7.90421 124.477 7.60435 123.762 7.60435H122.055L121.707 9.58342ZM124.206 3.27839H122.822L122.534 4.87763H124.134C124.398 4.89283 124.658 4.80708 124.861 4.63774C124.949 4.55305 125.017 4.45082 125.062 4.33779C125.106 4.22476 125.127 4.10352 125.121 3.98206C125.123 3.88565 125.104 3.78998 125.065 3.70164C125.027 3.6133 124.969 3.53438 124.897 3.4703C124.7 3.31964 124.452 3.25089 124.206 3.27839Z" fill="#21366E"/>
<path d="M137.004 3.56225H138.695C139.326 3.52831 139.959 3.61965 140.555 3.83098C141.151 4.04232 141.7 4.36949 142.169 4.79368C142.581 5.17057 142.909 5.63047 143.131 6.14315C143.353 6.65584 143.464 7.20969 143.457 7.76828C143.474 8.43725 143.346 9.102 143.081 9.71645C142.815 10.3309 142.42 10.8803 141.921 11.3266C140.805 12.2922 139.361 12.793 137.887 12.7259H130.898L133.121 0.151855H137.599L137.004 3.56225ZM136 9.22359H137.707C137.862 9.22653 138.015 9.19669 138.157 9.13604C138.299 9.07539 138.426 8.98531 138.531 8.87175C138.643 8.76028 138.731 8.62739 138.79 8.48105C138.849 8.33471 138.878 8.17794 138.875 8.02015C138.883 7.89316 138.865 7.76586 138.823 7.64572C138.781 7.52557 138.716 7.41499 138.631 7.32048C138.545 7.2349 138.443 7.16826 138.33 7.12487C138.217 7.08148 138.096 7.06231 137.975 7.06861H136.396L136 9.22359ZM149.889 0.151855L147.679 12.7259H143.185L145.396 0.151855H149.889Z" fill="#21366E"/>
<path d="M155.91 9.13179H161.752L161.12 12.7301H150.797L153.004 0.156006H163.335L162.707 3.75431H156.866L156.67 4.92176H161.252L160.708 7.96433H156.13L155.91 9.13179Z" fill="#21366E"/>
<path d="M100.101 0.147949H97.7982H93.0044L86.5635 12.726H91.0574L95.4673 4.10209H97.1065L95.5872 12.726H100.081L102.292 0.147949H100.101Z" fill="#21366E"/>
</g>
<defs>
<clipPath id="clip0_253_2112">
<rect width="170" height="43.2956" fill="white"/>
</clipPath>
</defs>
</svg>
