<svg width="57" height="46" xmlns="http://www.w3.org/2000/svg">
 <defs>
  <clipPath id="clip0_253_2112">
   <rect id="svg_1" fill="white" height="43.2956" width="170"/>
  </clipPath>
 </defs>
 <g>
  <title>background</title>
  <rect fill="none" id="canvas_background" height="48" width="59" y="-1" x="-1"/>
 </g>
 <g>
  <title>Layer 1</title>
  <g id="svg_2" clip-path="url(#clip0_253_2112)">
   <path id="svg_3" fill="#21366E" d="m26.2207,3.18694l12.8499,0c8.1162,0.09596 14.5612,6.15311 14.4293,13.62156c-0.132,7.4685 -6.7609,13.5017 -14.8651,13.6176l-3.0345,0l2.2749,-11.7544l0.7596,0c1.2195,0 2.215,-0.8397 2.231,-1.8552c0.016,-1.0155 -0.9635,-1.8591 -2.195,-1.8591l-1.9311,0l-5.2735,27.1432l-12.8459,0c-8.12021,-0.0959 -14.56517,-6.1571 -14.43324,-13.6216c0.13194,-7.5244 6.89276,-13.6255 15.10094,-13.6255l2.7986,0l-0.4637,2.3988l-1.8192,9.3876l-0.7596,0c-1.1995,0 -2.211,0.8396 -2.231,1.8551c-0.02,1.0156 0.9676,1.8592 2.199,1.8592l1.9311,0l5.2695,-27.15527m-1.7952,-2.18697l-0.3478,1.80716l-1.9071,9.85538l-2.8347,0c-9.39954,0 -17.17188,7.0926 -17.32381,15.8085c-0.0356,2.0989 0.37351,4.1816 1.20042,6.111c0.82691,1.9295 2.05289,3.6621 3.59732,5.0838c3.19885,2.9654 7.39657,4.6182 11.75847,4.6298l14.7051,0l0.3518,-1.8072l1.9151,-9.8593l3.0706,0l1.8511,-0.116c3.7505,-0.4067 7.2753,-1.9927 10.0673,-4.5298c1.5808,-1.406 2.8556,-3.1222 3.7449,-5.0419c0.8894,-1.9197 1.3743,-4.0018 1.4246,-6.1169c0.0341,-2.0986 -0.3757,-4.1808 -1.2025,-6.11007c-0.8268,-1.92923 -2.052,-3.66196 -3.5952,-5.08464c-3.1982,-2.96641 -7.3964,-4.61941 -11.7585,-4.62983l-0.024,0l-12.8499,0l-1.8432,0z"/>
  </g>
 </g>
</svg>